<svg width="32" height="32" viewBox="0 0 32 32" fill="none" xmlns="http://www.w3.org/2000/svg">
<path d="M25.0001 20H8.89005C8.40305 20 8.04105 20.172 7.75705 20.451C7.28805 20.911 7.12005 21.591 7.04605 22.243C6.96005 22.998 6.99105 23.689 7.20105 24.438C7.43705 25.273 8.02105 26 8.88605 26H25.0001M23.4061 26C21.8671 24.588 21.2361 22.142 23.4061 20M15.8181 10.5C15.8181 8 13.1091 7 13.1091 7M15.8181 10.921C15.8181 10.921 9.85905 7.856 9.85905 12.908C9.86005 17.961 12.5701 20 13.6511 20C14.5131 20 15.0211 18.991 15.8181 18.991C16.6151 18.991 16.9001 20 17.9841 20C19.0641 20 21.7761 17.96 21.7761 12.908C21.7761 7.856 15.8181 10.921 15.8181 10.921ZM16.3591 10C16.3591 6.01 18.3101 7 19.2861 6C20.2611 8.5 18.9561 9.003 16.3591 10Z" stroke="#F24822" stroke-width="1.5" stroke-linecap="round" stroke-linejoin="round"/>
</svg>
