<svg width="24" height="26" viewBox="0 0 24 26" fill="none" xmlns="http://www.w3.org/2000/svg">
<path d="M6.5 17.0751C7.28333 17.0751 8.04583 17.1641 8.7875 17.3421C9.52917 17.52 10.2667 17.7869 11 18.1428V8.12694C10.3167 7.7202 9.59167 7.41515 8.825 7.21178C8.05833 7.00841 7.28333 6.90673 6.5 6.90673C5.9 6.90673 5.30417 6.96604 4.7125 7.08468C4.12083 7.20331 3.55 7.38125 3 7.61852V17.6852C3.58333 17.4819 4.1625 17.3293 4.7375 17.2277C5.3125 17.126 5.9 17.0751 6.5 17.0751ZM13 18.1428C13.7333 17.7869 14.4708 17.52 15.2125 17.3421C15.9542 17.1641 16.7167 17.0751 17.5 17.0751C18.1 17.0751 18.6875 17.126 19.2625 17.2277C19.8375 17.3293 20.4167 17.4819 21 17.6852V7.61852C20.45 7.38125 19.8792 7.20331 19.2875 7.08468C18.6958 6.96604 18.1 6.90673 17.5 6.90673C16.7167 6.90673 15.9417 7.00841 15.175 7.21178C14.4083 7.41515 13.6833 7.7202 13 8.12694V18.1428ZM12 20.6087C11.7667 20.6087 11.5458 20.579 11.3375 20.5197C11.1292 20.4604 10.9333 20.3799 10.75 20.2782C10.1 19.8884 9.41667 19.5961 8.7 19.4012C7.98333 19.2063 7.25 19.1088 6.5 19.1088C5.8 19.1088 5.1125 19.202 4.4375 19.3884C3.7625 19.5749 3.11667 19.8376 2.5 20.1765C2.15 20.3629 1.8125 20.3544 1.4875 20.1511C1.1625 19.9477 1 19.6511 1 19.2613V7.00841C1 6.82199 1.04583 6.64404 1.1375 6.47457C1.22917 6.3051 1.36667 6.17799 1.55 6.09326C2.31667 5.68652 3.11667 5.38147 3.95 5.1781C4.78333 4.97473 5.63333 4.87305 6.5 4.87305C7.46667 4.87305 8.4125 5.00015 9.3375 5.25436C10.2625 5.50857 11.15 5.88989 12 6.39831C12.85 5.88989 13.7375 5.50857 14.6625 5.25436C15.5875 5.00015 16.5333 4.87305 17.5 4.87305C18.3667 4.87305 19.2167 4.97473 20.05 5.1781C20.8833 5.38147 21.6833 5.68652 22.45 6.09326C22.6333 6.17799 22.7708 6.3051 22.8625 6.47457C22.9542 6.64404 23 6.82199 23 7.00841V19.2613C23 19.6511 22.8375 19.9477 22.5125 20.1511C22.1875 20.3544 21.85 20.3629 21.5 20.1765C20.8833 19.8376 20.2375 19.5749 19.5625 19.3884C18.8875 19.202 18.2 19.1088 17.5 19.1088C16.75 19.1088 16.0167 19.2063 15.3 19.4012C14.5833 19.5961 13.9 19.8884 13.25 20.2782C13.0667 20.3799 12.8708 20.4604 12.6625 20.5197C12.4542 20.579 12.2333 20.6087 12 20.6087ZM14 9.72846C14 9.57594 14.0542 9.41917 14.1625 9.25817C14.2708 9.09717 14.3917 8.99125 14.525 8.94041C15.0083 8.77094 15.4917 8.64383 15.975 8.55909C16.4583 8.47436 16.9667 8.43199 17.5 8.43199C17.8333 8.43199 18.1625 8.45317 18.4875 8.49554C18.8125 8.53791 19.1333 8.59299 19.45 8.66078C19.6 8.69467 19.7292 8.77941 19.8375 8.91499C19.9458 9.05057 20 9.20309 20 9.37257C20 9.66067 19.9083 9.87251 19.725 10.0081C19.5417 10.1437 19.3083 10.1776 19.025 10.1098C18.7917 10.0589 18.5458 10.0208 18.2875 9.99538C18.0292 9.96996 17.7667 9.95725 17.5 9.95725C17.0667 9.95725 16.6417 9.99962 16.225 10.0844C15.8083 10.1691 15.4083 10.2792 15.025 10.4148C14.725 10.5335 14.4792 10.525 14.2875 10.3894C14.0958 10.2538 14 10.0335 14 9.72846ZM14 15.3211C14 15.1686 14.0542 15.0118 14.1625 14.8508C14.2708 14.6898 14.3917 14.5839 14.525 14.533C15.0083 14.3636 15.4917 14.2365 15.975 14.1517C16.4583 14.067 16.9667 14.0246 17.5 14.0246C17.8333 14.0246 18.1625 14.0458 18.4875 14.0882C18.8125 14.1305 19.1333 14.1856 19.45 14.2534C19.6 14.2873 19.7292 14.372 19.8375 14.5076C19.9458 14.6432 20 14.7957 20 14.9652C20 15.2533 19.9083 15.4651 19.725 15.6007C19.5417 15.7363 19.3083 15.7702 19.025 15.7024C18.7917 15.6516 18.5458 15.6134 18.2875 15.588C18.0292 15.5626 17.7667 15.5499 17.5 15.5499C17.0667 15.5499 16.6417 15.588 16.225 15.6643C15.8083 15.7405 15.4083 15.8465 15.025 15.982C14.725 16.1007 14.4792 16.0964 14.2875 15.9693C14.0958 15.8422 14 15.6261 14 15.3211ZM14 12.5248C14 12.3722 14.0542 12.2155 14.1625 12.0545C14.2708 11.8935 14.3917 11.7876 14.525 11.7367C15.0083 11.5672 15.4917 11.4401 15.975 11.3554C16.4583 11.2707 16.9667 11.2283 17.5 11.2283C17.8333 11.2283 18.1625 11.2495 18.4875 11.2919C18.8125 11.3342 19.1333 11.3893 19.45 11.4571C19.6 11.491 19.7292 11.5757 19.8375 11.7113C19.9458 11.8469 20 11.9994 20 12.1689C20 12.457 19.9083 12.6688 19.725 12.8044C19.5417 12.94 19.3083 12.9739 19.025 12.9061C18.7917 12.8552 18.5458 12.8171 18.2875 12.7917C18.0292 12.7663 17.7667 12.7536 17.5 12.7536C17.0667 12.7536 16.6417 12.7959 16.225 12.8807C15.8083 12.9654 15.4083 13.0756 15.025 13.2111C14.725 13.3298 14.4792 13.3213 14.2875 13.1857C14.0958 13.0501 14 12.8298 14 12.5248Z" fill="url(#paint0_linear_45_147)"/>
<defs>
<linearGradient id="paint0_linear_45_147" x1="12" y1="4.87305" x2="12" y2="20.6087" gradientUnits="userSpaceOnUse">
<stop stop-color="#FD8947"/>
<stop offset="1" stop-color="#FF5E00"/>
</linearGradient>
</defs>
</svg>
