<svg width="80" height="80" viewBox="0 0 80 80" fill="none" xmlns="http://www.w3.org/2000/svg">
<g clip-path="url(#clip0_48_209)">
<path fill-rule="evenodd" clip-rule="evenodd" d="M40 6.66667C21.5905 6.66667 6.66667 21.5905 6.66667 40C6.66667 58.4095 21.5905 73.3333 40 73.3333C58.4095 73.3333 73.3333 58.4095 73.3333 40C73.3333 21.5905 58.4095 6.66667 40 6.66667ZM0 40C0 17.9087 17.9087 0 40 0C62.0913 0 80 17.9087 80 40C80 62.0913 62.0913 80 40 80C17.9087 80 0 62.0913 0 40Z" fill="white"/>
<path fill-rule="evenodd" clip-rule="evenodd" d="M31.9722 75.7861C31.6497 75.3699 31.6497 71.6622 31.9722 64.6634C28.519 64.7827 26.3373 64.5431 25.4272 63.9446C24.0617 63.0467 22.6948 60.2779 21.4818 58.3266C20.269 56.3752 17.5772 56.0667 16.4901 55.6306C15.403 55.1942 15.1301 53.4161 19.4855 54.7609C23.8407 56.1057 24.0532 59.7679 25.4272 60.6242C26.801 61.4806 30.0858 61.1059 31.5747 60.4199C33.0637 59.7339 32.954 57.1797 33.2195 56.1679C33.5552 55.2234 32.3722 55.0139 32.3462 55.0062C30.8925 55.0062 23.2565 53.3456 21.1592 45.9511C19.0617 38.5567 21.7635 33.7236 23.2048 31.6459C24.1658 30.2607 24.0808 27.3087 22.9498 22.7896C27.0558 22.2649 30.2245 23.5572 32.4557 26.6669C32.4578 26.6847 35.3808 24.9287 40.0005 24.9287C44.62 24.9287 46.2588 26.3591 47.5237 26.6669C48.7885 26.9747 49.8 21.2236 57.6113 22.7896C55.9805 25.9949 54.6148 30.0002 55.6572 31.6459C56.6997 33.2916 60.7908 38.5246 58.2777 45.9511C56.6023 50.9022 53.3088 53.9206 48.3973 55.0062C47.8342 55.1859 47.5525 55.4759 47.5525 55.8759C47.5525 56.4761 48.314 56.5416 49.4108 59.3529C50.1422 61.2271 50.195 66.5801 49.5693 75.4117C47.9843 75.8152 46.7513 76.0861 45.8702 76.2246C44.3078 76.4701 42.6115 76.6077 40.9448 76.6609C39.2782 76.7141 38.6993 76.7081 36.395 76.4936C34.859 76.3506 33.3847 76.1147 31.9722 75.7861Z" fill="white"/>
</g>
<defs>
<clipPath id="clip0_48_209">
<rect width="80" height="80" fill="white"/>
</clipPath>
</defs>
</svg>
