<svg width="28" height="28" viewBox="0 0 32 32" fill="none" xmlns="http://www.w3.org/2000/svg">
<path d="M11.6666 13.3333C11.6666 12.1841 12.1232 11.0819 12.9358 10.2692C13.7485 9.45655 14.8507 9 16 9C17.1492 9 18.2514 9.45655 19.0641 10.2692C19.8767 11.0819 20.3333 12.1841 20.3333 13.3333C20.3333 14.4826 19.8767 15.5848 19.0641 16.3975C18.2514 17.2101 17.1492 17.6667 16 17.6667C14.8507 17.6667 13.7485 17.2101 12.9358 16.3975C12.1232 15.5848 11.6666 14.4826 11.6666 13.3333Z" fill="#e0e0e0"/>
<path fill-rule="evenodd" clip-rule="evenodd" d="M5.03198 11.836C5.25376 9.15567 6.47494 6.65663 8.45326 4.83465C10.4316 3.01267 13.0225 2.00088 15.712 2H16.288C18.9775 2.00088 21.5684 3.01267 23.5467 4.83465C25.525 6.65663 26.7462 9.15567 26.968 11.836C27.2141 14.8285 26.2902 17.7999 24.3906 20.1253L18 27.9413C17.7578 28.2378 17.4527 28.4767 17.1068 28.6408C16.7609 28.8048 16.3828 28.8899 16 28.8899C15.6171 28.8899 15.2391 28.8048 14.8932 28.6408C14.5473 28.4767 14.2422 28.2378 14 27.9413L7.61064 20.1253C5.71059 17.8001 4.78624 14.8287 5.03198 11.836ZM16 7C14.3203 7 12.7094 7.66726 11.5216 8.85499C10.3339 10.0427 9.66664 11.6536 9.66664 13.3333C9.66664 15.013 10.3339 16.6239 11.5216 17.8117C12.7094 18.9994 14.3203 19.6667 16 19.6667C17.6797 19.6667 19.2906 18.9994 20.4783 17.8117C21.666 16.6239 22.3333 15.013 22.3333 13.3333C22.3333 11.6536 21.666 10.0427 20.4783 8.85499C19.2906 7.66726 17.6797 7 16 7Z" fill="#e0e0e0"/>
</svg>
