<svg width="191" height="43" viewBox="0 0 191 43" fill="none" xmlns="http://www.w3.org/2000/svg">
<path d="M26.4559 17.04C25.7973 15.8267 24.8439 14.908 23.5959 14.284C22.3826 13.6253 20.9439 13.296 19.2799 13.296C16.4026 13.296 14.0973 14.2493 12.3639 16.156C10.6306 18.028 9.76394 20.5413 9.76394 23.696C9.76394 27.0587 10.6653 29.6933 12.4679 31.6C14.3053 33.472 16.8186 34.408 20.0079 34.408C22.1919 34.408 24.0293 33.8533 25.5199 32.744C27.0453 31.6347 28.1546 30.04 28.8479 27.96H17.5639V21.408H36.9079V29.676C36.2493 31.8947 35.1226 33.9573 33.5279 35.864C31.9679 37.7707 29.9746 39.3133 27.5479 40.492C25.1213 41.6707 22.3826 42.26 19.3319 42.26C15.7266 42.26 12.5026 41.48 9.65994 39.92C6.85194 38.3253 4.65061 36.124 3.05594 33.316C1.49594 30.508 0.715942 27.3013 0.715942 23.696C0.715942 20.0907 1.49594 16.884 3.05594 14.076C4.65061 11.2333 6.85194 9.03199 9.65994 7.47199C12.4679 5.87733 15.6746 5.07999 19.2799 5.07999C23.6479 5.07999 27.3226 6.13733 30.3039 8.25199C33.3199 10.3667 35.3133 13.296 36.2839 17.04H26.4559Z" fill="#141414"/>
<path d="M40.0653 27.44C40.0653 24.4587 40.62 21.8413 41.7293 19.588C42.8733 17.3347 44.416 15.6013 46.3573 14.388C48.2987 13.1747 50.4653 12.568 52.8573 12.568C54.9027 12.568 56.688 12.984 58.2133 13.816C59.7733 14.648 60.9693 15.74 61.8013 17.092V12.984H70.6933V42H61.8013V37.892C60.9347 39.244 59.7213 40.336 58.1613 41.168C56.636 42 54.8507 42.416 52.8053 42.416C50.448 42.416 48.2987 41.8093 46.3573 40.596C44.416 39.348 42.8733 37.5973 41.7293 35.344C40.62 33.056 40.0653 30.4213 40.0653 27.44ZM61.8013 27.492C61.8013 25.2733 61.1773 23.5227 59.9293 22.24C58.716 20.9573 57.2253 20.316 55.4573 20.316C53.6893 20.316 52.1813 20.9573 50.9333 22.24C49.72 23.488 49.1133 25.2213 49.1133 27.44C49.1133 29.6587 49.72 31.4267 50.9333 32.744C52.1813 34.0267 53.6893 34.668 55.4573 34.668C57.2253 34.668 58.716 34.0267 59.9293 32.744C61.1773 31.4613 61.8013 29.7107 61.8013 27.492Z" fill="#141414"/>
<path d="M86.0183 17.092C86.8503 15.74 88.0463 14.648 89.6063 13.816C91.1663 12.984 92.9516 12.568 94.9623 12.568C97.3543 12.568 99.521 13.1747 101.462 14.388C103.404 15.6013 104.929 17.3347 106.038 19.588C107.182 21.8413 107.754 24.4587 107.754 27.44C107.754 30.4213 107.182 33.056 106.038 35.344C104.929 37.5973 103.404 39.348 101.462 40.596C99.521 41.8093 97.3543 42.416 94.9623 42.416C92.917 42.416 91.1316 42.0173 89.6063 41.22C88.081 40.388 86.885 39.296 86.0183 37.944V42H77.1263V3.51999H86.0183V17.092ZM98.7063 27.44C98.7063 25.2213 98.0823 23.488 96.8343 22.24C95.621 20.9573 94.113 20.316 92.3103 20.316C90.5423 20.316 89.0343 20.9573 87.7863 22.24C86.573 23.5227 85.9663 25.2733 85.9663 27.492C85.9663 29.7107 86.573 31.4613 87.7863 32.744C89.0343 34.0267 90.5423 34.668 92.3103 34.668C94.0783 34.668 95.5863 34.0267 96.8343 32.744C98.0823 31.4267 98.7063 29.6587 98.7063 27.44Z" fill="#141414"/>
<path d="M121.311 17.82C122.351 16.2253 123.651 14.9773 125.211 14.076C126.771 13.14 128.505 12.672 130.411 12.672V22.084H127.967C125.749 22.084 124.085 22.5693 122.975 23.54C121.866 24.476 121.311 26.14 121.311 28.532V42H112.419V12.984H121.311V17.82Z" fill="#141414"/>
<path d="M139.133 9.96799C137.573 9.96799 136.291 9.51733 135.285 8.61599C134.315 7.67999 133.829 6.53599 133.829 5.18399C133.829 3.79733 134.315 2.65333 135.285 1.75199C136.291 0.815992 137.573 0.347992 139.133 0.347992C140.659 0.347992 141.907 0.815992 142.877 1.75199C143.883 2.65333 144.385 3.79733 144.385 5.18399C144.385 6.53599 143.883 7.67999 142.877 8.61599C141.907 9.51733 140.659 9.96799 139.133 9.96799ZM143.553 12.984V42H134.661V12.984H143.553Z" fill="#141414"/>
<path d="M177.349 27.024C177.349 27.856 177.297 28.7227 177.193 29.624H157.069C157.208 31.4267 157.78 32.8133 158.785 33.784C159.825 34.72 161.091 35.188 162.581 35.188C164.8 35.188 166.343 34.252 167.209 32.38H176.673C176.188 34.2867 175.304 36.0027 174.021 37.528C172.773 39.0533 171.196 40.2493 169.289 41.116C167.383 41.9827 165.251 42.416 162.893 42.416C160.051 42.416 157.52 41.8093 155.301 40.596C153.083 39.3827 151.349 37.6493 150.101 35.396C148.853 33.1427 148.229 30.508 148.229 27.492C148.229 24.476 148.836 21.8413 150.049 19.588C151.297 17.3347 153.031 15.6013 155.249 14.388C157.468 13.1747 160.016 12.568 162.893 12.568C165.701 12.568 168.197 13.1573 170.381 14.336C172.565 15.5147 174.264 17.196 175.477 19.38C176.725 21.564 177.349 24.112 177.349 27.024ZM168.249 24.684C168.249 23.1587 167.729 21.9453 166.689 21.044C165.649 20.1427 164.349 19.692 162.789 19.692C161.299 19.692 160.033 20.1253 158.993 20.992C157.988 21.8587 157.364 23.0893 157.121 24.684H168.249Z" fill="#141414"/>
<path d="M190.932 3.51999V42H182.04V3.51999H190.932Z" fill="#141414"/>
</svg>
